# xmcd CD database file
#
# Track frame offsets:
#	150
#	24596
#	46617
#	64290
#	86282
#	106538
#	133427
#	156764
#	180382
#	206735
#
# Disc length: 3126 seconds
#
# Revision: 1
# Processed by: cddbd v1.5.2PL0 Copyright (c) Steve Scherf et al.
# Submitted via: CDex 1.70beta2
#
DISCID=7b0c340a
DTITLE=Michel Camilo - On Fire
DYEAR=1900
DGENRE=Jazz
TTITLE0=Island Stomp
TTITLE1=If You Knew
TTITLE2=Uptown Manhattan
TTITLE3=Friends (Interlude II/Suite Sandrine)
TTITLE4=Hands and Feet
TTITLE5=This Way Out
TTITLE6=In LOve
TTITLE7=And Sammy Walked In
TTITLE8=Softly, As in a Morning Sunrise
TTITLE9=On Fire
EXTD=
EXTT0=
EXTT1=
EXTT2=
EXTT3=
EXTT4=
EXTT5=
EXTT6=
EXTT7=
EXTT8=
EXTT9=
PLAYORDER=
